<?xml version="1.0" encoding="utf-8"?><svg viewBox="0 0 27 49" xmlns="http://www.w3.org/2000/svg" xmlns:xlink="http://www.w3.org/1999/xlink"><style>:root>svg{display:none}:root>svg:target{display:block}</style><svg viewBox="0 0 26 49" id="arrow-left"><path d="M23.99 48a.988.988 0 01-.708-.298L1.292 25.229a1.037 1.037 0 010-1.444l21.99-22.473a.984.984 0 011.413-.025 1.038 1.038 0 010 1.47L3.414 24.505l21.283 21.75c.39.398.392 1.044.002 1.444a.99.99 0 01-.71.3z"/></svg><svg viewBox="0 0 27 49" id="arrow-right"><path d="M2.303 1a.99.99 0 01.707.298L25 23.771c.39.399.39 1.046 0 1.444L3.01 47.688a.984.984 0 01-1.413.025 1.038 1.038 0 010-1.47l21.281-21.749L1.595 2.744A1.037 1.037 0 011.593 1.3a.99.99 0 01.71-.3z"/></svg><svg viewBox="0 0 20 20" id="search"><path d="M19.724 18.263l-3.702-3.697c2.832-3.524 2.559-8.735-.67-11.936A8.949 8.949 0 008.992 0c-2.41 0-4.645.943-6.359 2.63A8.93 8.93 0 000 8.983c0 2.407.944 4.64 2.633 6.352a8.949 8.949 0 006.36 2.63 9.034 9.034 0 005.613-1.96l3.702 3.697a.982.982 0 00.695.298c.273 0 .522-.1.696-.298.397-.422.397-1.042.025-1.439zm-3.726-9.305a6.94 6.94 0 01-2.037 4.938 6.955 6.955 0 01-4.944 2.034 6.956 6.956 0 01-4.943-2.034 6.94 6.94 0 01-2.037-4.938A6.94 6.94 0 014.074 4.02a6.956 6.956 0 014.943-2.035c1.863 0 3.627.72 4.944 2.035a6.94 6.94 0 012.037 4.938z"/></svg><svg viewBox="0 0 12 20" id="vector"><path d="M0 12h6l-4 8h6l4-8V0H0v12z"/></svg></svg>