<?xml version="1.0" standalone="no"?>
<!DOCTYPE svg PUBLIC "-//W3C//DTD SVG 20010904//EN"
 "http://www.w3.org/TR/2001/REC-SVG-20010904/DTD/svg10.dtd">
<svg version="1.0" xmlns="http://www.w3.org/2000/svg"
 width="532.000000pt" height="532.000000pt" viewBox="0 0 532.000000 532.000000"
 preserveAspectRatio="xMidYMid meet">
<metadata>
Created by potrace 1.14, written by Peter Selinger 2001-2017
</metadata>
<g transform="translate(0.000000,532.000000) scale(0.100000,-0.100000)"
fill="#000000" stroke="none">
<path d="M2067 5153 c-4 -3 -7 -77 -7 -164 0 -154 0 -157 -22 -163 -13 -3
-150 -6 -305 -6 -236 0 -283 -2 -283 -14 0 -11 -26 -15 -123 -17 -101 -3 -127
-7 -141 -21 -13 -14 -34 -18 -82 -18 -50 0 -64 -3 -64 -15 0 -9 -9 -15 -24
-15 -45 0 -86 -13 -86 -26 0 -8 -10 -14 -24 -14 -45 0 -86 -13 -86 -26 0 -9
-12 -14 -35 -14 -23 0 -35 -5 -35 -14 0 -8 -15 -17 -35 -20 -21 -4 -35 -13
-35 -21 0 -8 -9 -15 -20 -15 -11 0 -20 -7 -20 -15 0 -8 -14 -17 -35 -21 -20
-3 -35 -12 -35 -20 0 -8 -9 -14 -20 -14 -13 0 -20 -7 -20 -19 0 -14 -10 -21
-35 -25 -21 -4 -35 -13 -35 -21 0 -8 -9 -15 -20 -15 -13 0 -20 -7 -20 -20 0
-11 -7 -20 -15 -20 -8 0 -15 -7 -15 -15 0 -8 -9 -15 -20 -15 -13 0 -20 -7 -20
-20 0 -11 -7 -20 -15 -20 -8 0 -17 -14 -21 -35 -4 -25 -11 -35 -25 -35 -12 0
-19 -7 -19 -20 0 -11 -7 -20 -15 -20 -10 0 -15 -11 -15 -35 0 -28 -4 -35 -20
-35 -16 0 -20 -7 -20 -35 0 -23 -5 -35 -14 -35 -8 0 -17 -15 -20 -35 -4 -21
-13 -35 -21 -35 -11 0 -15 -12 -15 -40 0 -33 -3 -40 -20 -40 -18 0 -20 -7 -20
-55 0 -41 -4 -55 -14 -55 -10 0 -16 -20 -21 -75 -5 -54 -11 -75 -21 -75 -11 0
-14 -22 -14 -103 0 -57 -5 -108 -10 -113 -7 -7 -9 -215 -6 -640 6 -715 11
-854 30 -854 10 0 16 -23 21 -75 5 -55 11 -75 21 -75 10 0 14 -14 14 -55 0
-48 2 -55 20 -55 17 0 20 -7 20 -40 0 -28 4 -40 15 -40 8 0 17 -14 21 -35 3
-20 12 -35 20 -35 9 0 14 -12 14 -35 0 -28 4 -35 20 -35 16 0 20 -7 20 -35 0
-24 5 -35 15 -35 8 0 15 -9 15 -20 0 -13 7 -20 20 -20 13 0 20 -7 20 -20 0
-13 7 -20 20 -20 13 0 20 -7 20 -20 0 -11 6 -20 14 -20 8 0 18 -14 22 -33 6
-28 8 -29 15 -12 7 18 9 18 13 -2 3 -18 18 -33 27 -28 5 4 9 -1 9 -9 0 -9 9
-16 20 -16 13 0 20 -7 20 -20 0 -13 7 -20 20 -20 13 0 20 -7 20 -20 0 -13 7
-20 20 -20 11 0 20 -7 20 -15 0 -10 11 -15 35 -15 28 0 35 -4 35 -20 0 -16 7
-20 34 -20 25 0 35 -5 39 -20 4 -15 14 -20 36 -20 20 0 31 -5 31 -14 0 -8 16
-16 40 -20 26 -4 40 -11 40 -21 0 -11 11 -15 40 -15 28 0 40 -4 40 -14 0 -10
20 -16 70 -21 50 -5 70 -11 70 -21 0 -10 15 -14 59 -14 78 0 121 -9 121 -26 0
-12 65 -14 385 -14 378 0 385 0 385 -20 0 -11 7 -20 15 -20 13 0 15 -38 15
-282 0 -156 3 -293 6 -306 l6 -22 599 0 599 0 0 303 c0 166 3 312 6 325 l6 22
382 1 c209 0 389 4 399 8 10 4 17 11 15 16 -2 6 30 11 74 13 59 2 76 6 72 16
-4 10 13 15 70 21 56 5 76 11 76 21 0 9 11 14 33 14 47 0 77 10 77 26 0 9 12
14 35 14 23 0 35 5 35 14 0 8 15 17 35 20 21 4 35 13 35 21 0 9 10 15 25 15
17 0 25 6 25 18 0 13 2 14 9 4 7 -11 9 -11 14 2 4 9 16 16 27 16 11 0 20 6 20
14 0 8 14 17 30 21 17 4 30 13 30 21 0 8 9 14 20 14 12 0 20 7 20 16 0 9 9 18
20 21 11 3 20 12 20 19 0 8 9 14 20 14 13 0 20 7 20 20 0 11 7 20 15 20 8 0
15 7 15 16 0 9 9 18 20 21 11 3 20 12 20 20 0 8 9 17 20 20 14 4 20 14 20 33
0 19 6 29 20 33 11 3 20 12 20 20 0 8 7 17 15 21 9 3 15 18 15 35 0 20 6 30
20 34 15 4 20 14 20 41 0 25 5 36 15 36 8 0 17 14 21 35 3 20 12 35 20 35 9 0
14 12 14 33 0 47 10 77 26 77 10 0 14 15 14 55 0 41 4 55 14 55 11 0 16 20 22
79 5 62 10 78 20 74 12 -4 14 112 14 746 0 632 -2 751 -14 751 -10 0 -15 26
-21 105 -5 80 -10 105 -21 105 -10 0 -14 15 -14 56 0 47 -3 57 -20 61 -17 5
-20 14 -20 59 0 41 -4 54 -15 54 -8 0 -17 14 -21 35 -3 20 -12 35 -20 35 -9 0
-14 12 -14 35 0 28 -4 35 -20 35 -16 0 -20 7 -20 34 0 25 -5 35 -20 39 -11 3
-20 12 -20 21 0 9 -7 16 -15 16 -10 0 -15 10 -15 34 0 25 -5 35 -20 39 -11 3
-20 12 -20 20 0 8 -9 17 -20 20 -11 3 -20 12 -20 21 0 9 -7 16 -15 16 -8 0
-15 9 -15 20 0 13 -7 20 -20 20 -11 0 -20 7 -20 15 0 8 -7 15 -15 15 -8 0 -15
9 -15 20 0 13 -7 20 -20 20 -11 0 -20 6 -20 14 0 8 -15 17 -35 20 -19 4 -34
12 -32 19 1 6 -8 13 -20 15 -15 2 -23 10 -23 23 0 15 -7 19 -35 19 -23 0 -35
5 -35 14 0 8 -15 17 -35 20 -21 4 -35 13 -35 21 0 13 -33 21 -63 16 -5 -1 -11
8 -14 19 -4 16 -14 20 -44 20 -27 0 -39 4 -39 14 0 9 -18 16 -55 21 -38 4 -55
11 -55 21 0 11 -16 14 -70 14 -53 0 -70 3 -70 14 0 19 -46 26 -176 26 -94 0
-114 3 -114 15 0 13 -42 15 -292 17 l-293 3 -3 168 -2 167 -599 0 c-329 0
-601 -3 -604 -7z m3 -2343 l0 -1060 -197 1 c-209 1 -291 8 -283 24 3 6 -23 11
-67 13 -54 2 -73 7 -73 17 0 8 -16 16 -40 20 -23 4 -40 12 -40 20 0 7 -9 15
-21 18 -12 3 -18 10 -14 17 4 7 -2 14 -14 17 -12 3 -21 12 -21 19 0 8 -9 14
-20 14 -13 0 -20 7 -20 20 0 11 -6 20 -14 20 -8 0 -17 15 -20 35 -4 21 -13 35
-21 35 -11 0 -15 12 -15 45 0 25 0 48 -1 53 0 4 -9 10 -20 14 -18 7 -19 18
-19 159 0 130 -2 150 -15 145 -13 -5 -15 41 -15 379 0 303 3 384 13 383 9 -2
14 30 18 122 3 69 7 126 8 128 0 1 8 2 16 2 11 0 15 11 15 40 0 27 4 40 14 40
8 0 17 15 20 35 4 21 13 35 21 35 8 0 15 9 15 20 0 11 6 20 14 20 8 0 17 14
21 30 4 17 13 30 22 30 8 0 17 9 20 20 4 14 14 20 35 20 21 0 31 6 35 20 4 16
14 20 44 20 27 0 39 4 39 14 0 17 31 26 88 26 31 0 42 4 42 15 0 13 32 15 225
15 l225 0 0 -1060z m1640 1045 c0 -11 12 -15 44 -15 63 0 106 -11 106 -26 0
-9 11 -14 29 -14 34 0 50 -16 24 -23 -11 -2 -3 -7 20 -11 20 -5 37 -14 37 -21
0 -7 9 -15 20 -18 11 -3 20 -12 20 -21 0 -9 7 -16 15 -16 8 0 15 -9 15 -20 0
-13 7 -20 20 -20 16 0 20 -7 20 -30 0 -19 5 -30 14 -30 8 0 16 -16 20 -40 4
-24 12 -40 20 -40 10 0 15 -19 18 -65 3 -46 9 -68 21 -77 16 -12 17 -55 15
-576 -3 -479 -5 -564 -17 -572 -10 -6 -16 -31 -19 -74 -3 -46 -8 -66 -18 -66
-7 0 -16 -16 -20 -35 -3 -19 -12 -35 -19 -35 -7 0 -16 -16 -19 -35 -4 -21 -13
-35 -21 -35 -8 0 -15 -8 -15 -19 0 -14 -10 -21 -35 -25 -21 -4 -35 -13 -35
-21 0 -8 -9 -15 -20 -15 -11 0 -20 -7 -20 -15 0 -8 -14 -17 -35 -21 -20 -3
-35 -12 -35 -20 0 -11 -17 -14 -70 -14 -55 0 -71 -3 -79 -17 -8 -16 -31 -18
-207 -21 -109 -2 -212 -1 -231 3 l-33 6 0 1039 c0 918 2 1040 15 1040 8 0 15
7 15 15 0 13 31 15 220 15 189 0 220 -2 220 -15z"/>
<path d="M1133 3064 c0 -18 2 -22 8 -13 11 18 11 39 0 39 -5 0 -8 -12 -8 -26z"/>
<path d="M1135 2990 c3 -5 8 -10 11 -10 2 0 4 5 4 10 0 6 -5 10 -11 10 -5 0
-7 -4 -4 -10z"/>
<path d="M1130 2955 c0 -8 2 -15 4 -15 2 0 6 7 10 15 3 8 1 15 -4 15 -6 0 -10
-7 -10 -15z"/>
<path d="M1134 2906 c1 -14 5 -29 10 -33 4 -4 6 4 4 19 -5 35 -15 46 -14 14z"/>
<path d="M1130 2833 c0 -14 3 -23 7 -19 10 10 11 46 1 46 -4 0 -8 -12 -8 -27z"/>
<path d="M1137 2763 c-4 -3 -7 -11 -7 -17 0 -6 5 -5 12 2 6 6 9 14 7 17 -3 3
-9 2 -12 -2z"/>
<path d="M1135 2690 c-3 -5 -1 -10 4 -10 6 0 11 5 11 10 0 6 -2 10 -4 10 -3 0
-8 -4 -11 -10z"/>
<path d="M1130 2659 c0 -5 5 -7 10 -4 6 3 10 8 10 11 0 2 -4 4 -10 4 -5 0 -10
-5 -10 -11z"/>
<path d="M1134 2545 c0 -36 4 -65 9 -65 8 0 3 117 -5 125 -2 3 -4 -24 -4 -60z"/>
</g>
</svg>
